<svg width="232" height="102" viewBox="0 0 232 102" fill="none" xmlns="http://www.w3.org/2000/svg">
<path d="M4.42738 90.1045C5.68522 90.1045 6.6417 91.0044 6.6417 92.1714C6.6417 93.7884 5.30525 95.2226 3.90328 95.2226C2.50132 95.2226 1.76758 94.2102 1.76758 93.0432C1.76758 91.8761 2.75026 90.1045 4.44049 90.1045" fill="#1B61A4"/>
<path d="M27.6207 90.1035C28.8785 90.1035 29.835 91.0034 29.835 92.1704C29.835 93.7874 28.4986 95.2216 27.0966 95.2216C25.6947 95.2216 24.9609 94.2092 24.9609 93.0422C24.9609 91.8752 25.9436 90.1035 27.6338 90.1035" fill="#1B61A4"/>
<path d="M50.9958 90.1035C52.2536 90.1035 53.2101 91.0034 53.2101 92.1704C53.2101 93.7874 51.8737 95.2216 50.4717 95.2216C49.0697 95.2216 48.3359 94.2092 48.3359 93.0422C48.3359 91.8752 49.3186 90.1035 51.0089 90.1035" fill="#1B61A4"/>
<path d="M74.2126 90.1035C75.4704 90.1035 76.4269 91.0034 76.4269 92.1704C76.4269 93.7874 75.0904 95.2216 73.6885 95.2216C72.2865 95.2216 71.5527 94.2092 71.5527 93.0422C71.5527 91.8752 72.5354 90.1035 74.2257 90.1035" fill="#1B61A4"/>
<path d="M93.9062 101.479L96.3957 85.3232H102.921C105.659 85.3232 107.415 87.2496 107.166 89.6539C106.747 93.6472 105.83 94.3221 104.467 95.3064C103.327 96.1219 102.226 96.1781 101.309 96.1781H98.8197L97.9026 101.479H93.9062ZM101.034 92.7473C102.292 92.6348 102.829 92.0302 103.039 90.4554C103.196 89.3165 102.371 88.7962 101.597 88.7962H99.8811L99.2521 92.7895L101.047 92.7473H101.034Z" fill="#1B61A4"/>
<path d="M125.484 93.3098C125.68 90.793 128.497 88.7964 130.292 88.8245C132.258 88.8667 134.013 90.1743 134.013 92.5084C134.013 94.8425 132.009 97.7812 129.1 97.7812C126.191 97.7812 125.353 95.1518 125.484 93.2958V93.3098ZM121.238 94.3082C121.238 98.906 124.226 101.957 128.366 101.957C132.507 101.957 137.944 99.131 138.232 91.7913C138.324 89.1901 136.228 84.7188 130.895 84.7188C125.562 84.7188 121.251 89.3166 121.251 94.3222" fill="#1B61A4"/>
<path d="M192.909 85.2959L190.498 101.48H199.237L199.775 97.9365H195.097L195.543 95.2368H199.932L200.456 91.6232H196.093L196.499 89.0923H201.085L201.661 85.2959H192.909Z" fill="#1B61A4"/>
<path d="M218.762 101.48L221.146 85.2539H227.252C229.283 85.2539 231.786 86.196 231.681 89.2472C231.589 92.0312 230.344 94.2106 227.606 94.8996L231.327 101.564H226.309L223.61 95.3073L222.693 101.48H218.762ZM224.527 88.8675L224.003 92.7483C226.348 92.8186 227.265 92.0031 227.331 90.4564C227.396 88.8675 225.614 88.8675 224.527 88.8675Z" fill="#1B61A4"/>
<path d="M90.3682 30.8387C88.4028 28.2796 85.5202 26.4658 81.6549 26.3955C77.4359 26.3111 74.4223 28.0687 72.2734 30.8387H90.3682Z" fill="#1B61A4"/>
<path d="M69.3791 27.5342H51.625V30.8525H69.3791V27.5342Z" fill="#1B61A4"/>
<path d="M51.2321 30.8383C50.9831 29.2073 50.577 27.1685 49.8825 24.8906H29.9141C30.8706 26.3248 31.6567 28.3496 32.2463 30.8383H51.2452H51.2321Z" fill="#1B61A4"/>
<path d="M19.8885 30.8383C20.4126 28.3918 21.1463 26.3529 22.0897 24.8906H2.54058C1.95096 26.7748 1.45306 28.7714 1.04688 30.8383H19.8885Z" fill="#1B61A4"/>
<path d="M42.4779 11.4909C37.6954 6.23218 32.1661 4.33398 26.0079 4.33398C20.1903 4.33398 14.0189 6.82273 9.79989 11.4065C9.77368 11.4347 9.76058 11.4628 9.73438 11.4768H42.4779V11.4909Z" fill="#1B61A4"/>
<path d="M48.5589 21.2065C47.7335 19.252 46.6853 17.1992 45.3488 15.1885H6.94493C5.805 16.9742 4.76989 18.9989 3.87891 21.2065H48.5589Z" fill="#1B61A4"/>
<path d="M93.5787 40.5541C93.5525 38.6138 93.1856 36.5468 92.4387 34.6064H70.0988C69.8367 35.2251 69.5877 35.8579 69.365 36.5046V34.6064H32.9004C33.1362 36.4203 33.2935 38.4169 33.3459 40.5541H93.5787Z" fill="#1B61A4"/>
<path d="M18.8678 40.5541C18.9071 38.4591 19.0381 36.4625 19.2609 34.6064H0.458592C0.222745 36.5468 0.0655132 38.5294 0 40.5541H18.8678Z" fill="#1B61A4"/>
<path d="M69.4565 50.1997C69.5351 47.5281 70.9764 45.5315 72.9549 45.5315C74.75 45.5315 76.0733 46.8532 76.1126 50.1997H93.5916V44.3223H33.3456C33.2932 46.4033 33.1622 48.3718 32.9395 50.1997H69.4434H69.4565Z" fill="#1B61A4"/>
<path d="M19.3395 50.1997C19.1037 48.4139 18.9464 46.4454 18.8809 44.3223H0C0.0655132 46.347 0.209642 48.3015 0.44549 50.1997H19.3395Z" fill="#1B61A4"/>
<path d="M93.5922 63.6846H76.1133V69.562H93.5922V63.6846Z" fill="#1B61A4"/>
<path d="M93.5922 73.3164H76.1133V78.7439H93.5922V73.3164Z" fill="#1B61A4"/>
<path d="M69.445 63.6846H51.5469V69.562H69.445V63.6846Z" fill="#1B61A4"/>
<path d="M69.445 73.3164H51.5469V78.7579H69.445V73.3164Z" fill="#1B61A4"/>
<path d="M45.1919 69.5473C46.3843 67.7616 47.4194 65.7931 48.2972 63.6699H4.02344C4.96683 65.8212 6.06745 67.7757 7.28599 69.5473H45.1919Z" fill="#1B61A4"/>
<path d="M10.418 73.3154C14.6501 77.5618 19.9567 79.938 26.0101 79.938C32.8235 79.938 38.1432 77.4493 42.1657 73.3154H10.418Z" fill="#1B61A4"/>
<path d="M93.5922 53.9688H76.1133V59.9164H93.5922V53.9688Z" fill="#1B61A4"/>
<path d="M69.445 53.9688H51.5469V59.9164H69.445V53.9688Z" fill="#1B61A4"/>
<path d="M49.6578 59.9164C50.2475 58.0042 50.7454 56.0216 51.1384 53.9688H32.2968C31.6941 56.5419 30.8162 58.5947 29.5977 59.9164H49.6578Z" fill="#1B61A4"/>
<path d="M22.7188 59.9164C21.5788 58.6228 20.6747 56.5981 20.0327 53.9688H1.04688C1.45306 56.0497 1.96406 58.0323 2.57989 59.9164H22.7188Z" fill="#1B61A4"/>
<path d="M93.5781 5.83887H112.249V61.5756H125.588V78.7438H93.5781V5.92323" fill="#141414"/>
<path d="M144.469 27.6748H126.99V78.7434H144.469V27.6748Z" fill="#141414"/>
<path d="M135.6 22.9222C141.312 22.9222 145.938 17.9588 145.938 11.8283C145.938 5.69781 141.312 0.734375 135.6 0.734375C129.887 0.734375 125.262 5.69781 125.262 11.8283C125.262 17.9588 129.887 22.9222 135.6 22.9222Z" fill="#141414"/>
<path d="M210.573 26.7748C198.073 26.7748 190.749 36.1533 188.744 47.43C188.744 32.6241 184.381 26.6904 176.113 26.6904C169.837 26.6904 165.854 31.8648 163.967 36.9688V27.6747H146.488V78.7714H163.967V51.592C164.478 46.3895 166.09 45.7568 167.754 45.7568C169.51 45.7568 170.977 46.7411 170.977 51.8592V78.7433H188.731V61.9267C190.841 73.0206 198.217 80.1634 210.062 80.1634C225.785 80.1634 230.057 67.9728 231.184 61.8704H213.849C213.43 64.4717 211.399 65.484 209.957 65.484C207.822 65.484 205.961 63.9092 205.778 57.6944H231.747V57.7366C232.586 37.925 223.964 26.7889 210.56 26.7889L210.573 26.7748ZM205.817 47.2754C205.817 44.4492 206.905 40.7231 209.787 40.7231C212.67 40.7231 213.993 43.8867 213.993 47.2754H205.817Z" fill="#141414"/>
<path d="M171.985 85.2959L167.582 95.7571L166.18 85.2959H162.97L158.253 95.6868L157.231 85.2959H153.064L155.239 101.48H159.131L163.586 92.1857L164.739 101.522H168.814L176.178 85.2959H171.985Z" fill="#1B61A4"/>
</svg>
